<svg width="25" height="24" viewBox="0 0 25 24" fill="none" xmlns="http://www.w3.org/2000/svg">
<rect width="24" height="24" transform="translate(0.5)" fill="#78589F"/>
<path d="M10.4425 10.6872C10.4119 9.91075 10.4176 9.09875 10.4343 8.42186C11.0289 8.74586 11.7349 9.14694 12.3921 9.5616C12.8721 9.86449 13.3095 10.1643 13.6527 10.4379C14.0227 10.733 14.1888 10.9248 14.2321 10.9999C14.2755 11.0749 14.3585 11.3147 14.4291 11.7827C14.4945 12.2167 14.5354 12.7453 14.5577 13.3125C14.5882 14.089 14.5825 14.901 14.5658 15.5779C13.9713 15.2539 13.2652 14.8528 12.608 14.4381C12.128 14.1352 11.6906 13.8355 11.3475 13.5618C10.9775 13.2667 10.8114 13.0749 10.768 12.9999C10.7247 12.9248 10.6416 12.6851 10.5711 12.2171C10.5057 11.7831 10.4647 11.2544 10.4425 10.6872Z" stroke="white" stroke-width="2"/>
<circle cx="12.5" cy="12" r="9" stroke="white" stroke-width="2"/>
</svg>
