<svg width="26" height="28" viewBox="0 0 26 28" fill="none" xmlns="http://www.w3.org/2000/svg">
<path fill-rule="evenodd" clip-rule="evenodd" d="M13.4218 23.1099C15.0161 22.221 20.5832 18.6971 20.5832 12.8334C20.5832 8.32309 17.188 4.66675 12.9998 4.66675C8.81168 4.66675 5.4165 8.32309 5.4165 12.8334C5.4165 18.6971 10.9836 22.221 12.5779 23.1099C12.844 23.2582 13.1557 23.2582 13.4218 23.1099ZM12.9998 16.3334C14.7948 16.3334 16.2498 14.7664 16.2498 12.8334C16.2498 10.9004 14.7948 9.33342 12.9998 9.33342C11.2049 9.33342 9.74984 10.9004 9.74984 12.8334C9.74984 14.7664 11.2049 16.3334 12.9998 16.3334Z" fill="#222222"/>
</svg>
