<svg width="38" height="39" viewBox="0 0 38 39" fill="none" xmlns="http://www.w3.org/2000/svg">
<path d="M21 5.20801H5C3.93913 5.20801 2.92172 5.62944 2.17157 6.37958C1.42143 7.12973 1 8.14714 1 9.20801V29.208M1 29.208V33.208C1 34.2689 1.42143 35.2863 2.17157 36.0364C2.92172 36.7866 3.93913 37.208 5 37.208H29C30.0609 37.208 31.0783 36.7866 31.8284 36.0364C32.5786 35.2863 33 34.2689 33 33.208V25.208M1 29.208L10.172 20.036C10.9221 19.2861 11.9393 18.8649 13 18.8649C14.0607 18.8649 15.0779 19.2861 15.828 20.036L21 25.208M33 17.208V25.208M33 25.208L29.828 22.036C29.0779 21.2861 28.0607 20.8649 27 20.8649C25.9393 20.8649 24.9221 21.2861 24.172 22.036L21 25.208M21 25.208L25 29.208M29 5.20801H37M33 1.20801V9.20801M21 13.208H21.02" stroke="#9CA3AF" stroke-width="2" stroke-linecap="round" stroke-linejoin="round"/>
</svg>
